<?xml version="1.0" encoding="utf-8"?>
<!-- Generator: Adobe Illustrator 16.0.0, SVG Export Plug-In . SVG Version: 6.00 Build 0)  -->
<!DOCTYPE svg PUBLIC "-//W3C//DTD SVG 1.1//EN" "http://www.w3.org/Graphics/SVG/1.1/DTD/svg11.dtd">
<svg version="1.1"
	 id="svg3336" xmlns:cc="http://creativecommons.org/ns#" xmlns:inkscape="http://www.inkscape.org/namespaces/inkscape" xmlns:sodipodi="http://sodipodi.sourceforge.net/DTD/sodipodi-0.dtd" xmlns:svg="http://www.w3.org/2000/svg" xmlns:rdf="http://www.w3.org/1999/02/22-rdf-syntax-ns#" xmlns:dc="http://purl.org/dc/elements/1.1/" sodipodi:docname="tic-logo.svg" inkscape:version="0.91 r13725"
	 xmlns="http://www.w3.org/2000/svg" xmlns:xlink="http://www.w3.org/1999/xlink" x="0px" y="0px" width="1561.25px"
	 height="493.75px" viewBox="0 0 1561.25 493.75" enable-background="new 0 0 1561.25 493.75" xml:space="preserve">
<sodipodi:namedview  id="namedview3338" gridtolerance="10" objecttolerance="10" inkscape:cx="827.73549" inkscape:zoom="0.5652522" guidetolerance="10" showgrid="false" bordercolor="#666666" pagecolor="#ffffff" inkscape:cy="246.875" showguides="true" borderopacity="1" inkscape:window-maximized="1" inkscape:window-y="-8" inkscape:window-x="-8" inkscape:pageshadow="2" inkscape:current-layer="g3940" inkscape:pageopacity="0" inkscape:window-height="1027" inkscape:window-width="1920" inkscape:guide-bbox="true">
	<sodipodi:guide  orientation="1,0" position="769.56799,566.11898" id="guide3956"></sodipodi:guide>
</sodipodi:namedview>
<g id="g3395">
</g>
<g id="flowRoot3383">
</g>
<g enable-background="new    ">
	<path fill="#FFA600" d="M50.322,342.347v-74.211H23.06v-15.11h73.012v15.11H68.872v74.211H50.322z"/>
	<path fill="#FFA600" d="M125.464,253.025v32.841c5.681-6.458,12.471-9.688,20.368-9.688c4.052,0,7.708,0.732,10.968,2.194
		c3.259,1.462,5.712,3.331,7.364,5.604c1.65,2.275,2.778,4.794,3.384,7.556c0.605,2.763,0.909,7.048,0.909,12.856v37.958h-17.611
		v-34.181c0-6.783-0.335-11.09-1.002-12.917c-0.669-1.827-1.849-3.28-3.541-4.356c-1.692-1.076-3.813-1.615-6.361-1.615
		c-2.925,0-5.537,0.691-7.833,2.072c-2.298,1.381-3.98,3.463-5.045,6.245s-1.598,6.896-1.598,12.338v32.414h-17.611v-89.321H125.464
		z"/>
	<path fill="#FFA600" d="M224.86,321.753l17.548,2.863c-2.256,6.256-5.819,11.019-10.686,14.288
		c-4.868,3.271-10.958,4.904-18.269,4.904c-11.574,0-20.139-3.676-25.695-11.027c-4.387-5.89-6.581-13.322-6.581-22.3
		c0-10.724,2.883-19.122,8.648-25.194s13.056-9.109,21.872-9.109c9.902,0,17.714,3.18,23.439,9.536
		c5.724,6.357,8.461,16.095,8.21,29.215h-44.12c0.125,5.078,1.545,9.028,4.261,11.851c2.716,2.824,6.1,4.234,10.153,4.234
		c2.758,0,5.076-0.73,6.957-2.193C222.479,327.358,223.898,325.003,224.86,321.753z M225.863,304.449
		c-0.125-4.955-1.441-8.723-3.948-11.303c-2.507-2.578-5.557-3.869-9.15-3.869c-3.844,0-7.019,1.361-9.526,4.083
		s-3.74,6.419-3.698,11.089H225.863z"/>
	<path fill="#FFA600" d="M292.921,342.347v-89.321h18.551v89.321H292.921z"/>
	<path fill="#FFA600" d="M389.56,342.347h-17.611v-33.023c0-6.985-0.376-11.505-1.128-13.556s-1.974-3.646-3.666-4.783
		c-1.692-1.137-3.729-1.707-6.111-1.707c-3.05,0-5.787,0.813-8.209,2.438c-2.424,1.625-4.084,3.777-4.982,6.459
		c-0.899,2.681-1.348,7.637-1.348,14.866v29.307h-17.61v-64.706h16.357v9.505c5.807-7.312,13.119-10.968,21.935-10.968
		c3.885,0,7.436,0.682,10.654,2.042c3.217,1.361,5.65,3.098,7.301,5.209c1.65,2.112,2.799,4.509,3.447,7.19
		c0.647,2.68,0.972,6.519,0.972,11.515V342.347z"/>
	<path fill="#FFA600" d="M401.216,323.886l17.674-2.62c0.752,3.331,2.276,5.859,4.575,7.585c2.297,1.728,5.515,2.59,9.651,2.59
		c4.553,0,7.979-0.812,10.277-2.438c1.546-1.137,2.319-2.659,2.319-4.569c0-1.3-0.418-2.376-1.254-3.229
		c-0.877-0.812-2.842-1.563-5.891-2.254c-14.206-3.047-23.21-5.828-27.012-8.348c-5.264-3.492-7.896-8.347-7.896-14.562
		c0-5.605,2.277-10.316,6.831-14.135s11.615-5.729,21.183-5.729c9.108,0,15.877,1.443,20.306,4.326
		c4.429,2.885,7.479,7.15,9.15,12.795l-16.608,2.986c-0.711-2.519-2.058-4.448-4.042-5.789c-1.984-1.34-4.815-2.01-8.492-2.01
		c-4.638,0-7.959,0.63-9.964,1.889c-1.338,0.894-2.006,2.051-2.006,3.473c0,1.219,0.585,2.254,1.755,3.107
		c1.587,1.138,7.071,2.742,16.451,4.813c9.379,2.071,15.928,4.61,19.647,7.616c3.676,3.046,5.515,7.291,5.515,12.733
		c0,5.932-2.549,11.028-7.646,15.293c-5.099,4.266-12.64,6.397-22.624,6.397c-9.067,0-16.243-1.786-21.528-5.361
		C406.303,334.873,402.846,330.02,401.216,323.886z"/>
	<path fill="#FFA600" d="M478.302,277.641h16.42v9.505c2.131-3.249,5.014-5.89,8.648-7.921c3.636-2.03,7.667-3.047,12.096-3.047
		c7.729,0,14.289,2.946,19.679,8.836s8.085,14.095,8.085,24.614c0,10.806-2.717,19.203-8.147,25.194
		c-5.432,5.991-12.013,8.986-19.741,8.986c-3.677,0-7.01-0.711-9.996-2.132c-2.987-1.422-6.132-3.858-9.432-7.312v32.597h-17.611
		V277.641z M495.725,308.897c0,7.271,1.482,12.643,4.449,16.115s6.581,5.209,10.843,5.209c4.094,0,7.499-1.594,10.215-4.782
		s4.074-8.418,4.074-15.689c0-6.783-1.4-11.82-4.199-15.11c-2.8-3.29-6.268-4.935-10.403-4.935c-4.304,0-7.876,1.614-10.717,4.844
		C497.145,297.777,495.725,302.561,495.725,308.897z"/>
	<path fill="#FFA600" d="M595.747,321.753l17.548,2.863c-2.256,6.256-5.818,11.019-10.685,14.288
		c-4.868,3.271-10.958,4.904-18.269,4.904c-11.574,0-20.14-3.676-25.695-11.027c-4.387-5.89-6.581-13.322-6.581-22.3
		c0-10.724,2.883-19.122,8.649-25.194c5.766-6.072,13.056-9.109,21.872-9.109c9.901,0,17.714,3.18,23.438,9.536
		c5.724,6.357,8.461,16.095,8.21,29.215h-44.12c0.125,5.078,1.545,9.028,4.262,11.851c2.715,2.824,6.1,4.234,10.152,4.234
		c2.758,0,5.076-0.73,6.957-2.193C593.366,327.358,594.786,325.003,595.747,321.753z M596.75,304.449
		c-0.125-4.955-1.441-8.723-3.948-11.303c-2.507-2.578-5.557-3.869-9.149-3.869c-3.845,0-7.02,1.361-9.526,4.083
		s-3.739,6.419-3.697,11.089H596.75z"/>
	<path fill="#FFA600" d="M686.62,296.772l-17.36,3.046c-0.585-3.371-1.911-5.91-3.979-7.615c-2.068-1.707-4.753-2.56-8.053-2.56
		c-4.388,0-7.887,1.473-10.498,4.417c-2.611,2.945-3.917,7.871-3.917,14.775c0,7.677,1.326,13.1,3.98,16.268
		c2.652,3.169,6.214,4.753,10.685,4.753c3.343,0,6.079-0.924,8.21-2.772c2.131-1.848,3.636-5.026,4.513-9.535l17.297,2.863
		c-1.797,7.718-5.243,13.548-10.341,17.486c-5.098,3.94-11.929,5.91-20.493,5.91c-9.735,0-17.496-2.985-23.282-8.956
		c-5.787-5.971-8.68-14.236-8.68-24.798c0-10.683,2.903-18.999,8.711-24.95c5.807-5.95,13.662-8.927,23.564-8.927
		c8.105,0,14.55,1.697,19.334,5.088C681.094,284.658,684.53,289.826,686.62,296.772z"/>
	<path fill="#FFA600" d="M730.489,277.641v13.648h-12.033v26.077c0,5.28,0.115,8.357,0.345,9.23
		c0.229,0.874,0.752,1.595,1.567,2.163c0.814,0.569,1.807,0.853,2.977,0.853c1.63,0,3.989-0.548,7.082-1.645l1.504,13.282
		c-4.095,1.706-8.732,2.559-13.913,2.559c-3.176,0-6.038-0.518-8.586-1.554c-2.549-1.035-4.418-2.376-5.608-4.021
		c-1.191-1.646-2.017-3.869-2.476-6.672c-0.376-1.99-0.564-6.011-0.564-12.064v-28.209h-8.085v-13.648h8.085v-12.855l17.673-9.992
		v22.848H730.489z"/>
	<path fill="#FFA600" d="M742.711,268.867v-15.842h17.61v15.842H742.711z M742.711,342.347v-64.706h17.61v64.706H742.711z"/>
	<path fill="#FFA600" d="M774.296,309.08c0-5.687,1.441-11.19,4.324-16.512c2.883-5.32,6.967-9.383,12.253-12.186
		c5.284-2.803,11.187-4.205,17.704-4.205c10.068,0,18.32,3.18,24.755,9.536c6.434,6.357,9.651,14.39,9.651,24.097
		c0,9.79-3.249,17.903-9.745,24.341c-6.497,6.438-14.676,9.657-24.536,9.657c-6.101,0-11.918-1.34-17.453-4.021
		c-5.537-2.682-9.746-6.611-12.629-11.79S774.296,316.513,774.296,309.08z M792.346,309.994c0,6.418,1.566,11.332,4.7,14.744
		s6.997,5.118,11.594,5.118c4.596,0,8.45-1.706,11.563-5.118c3.111-3.412,4.669-8.367,4.669-14.866
		c0-6.337-1.558-11.211-4.669-14.623c-3.113-3.412-6.968-5.118-11.563-5.118c-4.597,0-8.46,1.706-11.594,5.118
		S792.346,303.576,792.346,309.994z"/>
	<path fill="#FFA600" d="M917.312,342.347h-17.61v-33.023c0-6.985-0.376-11.505-1.128-13.556c-0.753-2.051-1.975-3.646-3.667-4.783
		c-1.691-1.137-3.729-1.707-6.11-1.707c-3.05,0-5.787,0.813-8.21,2.438c-2.424,1.625-4.084,3.777-4.982,6.459
		c-0.898,2.681-1.347,7.637-1.347,14.866v29.307h-17.611v-64.706h16.357v9.505c5.807-7.312,13.119-10.968,21.935-10.968
		c3.886,0,7.437,0.682,10.654,2.042c3.217,1.361,5.65,3.098,7.302,5.209c1.649,2.112,2.798,4.509,3.446,7.19
		c0.647,2.68,0.972,6.519,0.972,11.515V342.347z"/>
	<path fill="#FFA600" d="M1029.743,309.506l17.987,5.545c-2.758,9.748-7.344,16.989-13.757,21.721
		c-6.414,4.732-14.551,7.099-24.41,7.099c-12.2,0-22.228-4.052-30.082-12.155c-7.855-8.104-11.782-19.183-11.782-33.236
		c0-14.867,3.948-26.412,11.845-34.639c7.896-8.225,18.278-12.338,31.147-12.338c11.238,0,20.368,3.229,27.388,9.688
		c4.177,3.818,7.311,9.303,9.4,16.451l-18.362,4.266c-1.087-4.631-3.354-8.287-6.8-10.968c-3.447-2.681-7.637-4.021-12.566-4.021
		c-6.811,0-12.336,2.375-16.576,7.128c-4.241,4.753-6.361,12.45-6.361,23.092c0,11.293,2.089,19.335,6.268,24.128
		c4.178,4.793,9.609,7.189,16.294,7.189c4.93,0,9.171-1.523,12.723-4.569C1025.648,320.839,1028.197,316.047,1029.743,309.506z"/>
	<path fill="#FFA600" d="M1059.449,309.08c0-5.687,1.441-11.19,4.324-16.512c2.883-5.32,6.967-9.383,12.253-12.186
		c5.284-2.803,11.187-4.205,17.704-4.205c10.068,0,18.32,3.18,24.755,9.536c6.434,6.357,9.651,14.39,9.651,24.097
		c0,9.79-3.249,17.903-9.745,24.341c-6.497,6.438-14.676,9.657-24.536,9.657c-6.101,0-11.918-1.34-17.453-4.021
		c-5.537-2.682-9.746-6.611-12.629-11.79S1059.449,316.513,1059.449,309.08z M1077.499,309.994c0,6.418,1.566,11.332,4.7,14.744
		s6.997,5.118,11.594,5.118c4.596,0,8.45-1.706,11.563-5.118c3.111-3.412,4.669-8.367,4.669-14.866
		c0-6.337-1.558-11.211-4.669-14.623c-3.113-3.412-6.968-5.118-11.563-5.118c-4.597,0-8.46,1.706-11.594,5.118
		S1077.499,303.576,1077.499,309.994z"/>
	<path fill="#FFA600" d="M1140.608,277.641h16.231v8.834c5.808-6.863,12.723-10.297,20.744-10.297c4.262,0,7.96,0.854,11.093,2.56
		c3.134,1.706,5.703,4.286,7.709,7.737c2.924-3.451,6.079-6.031,9.463-7.737c3.385-1.706,6.998-2.56,10.843-2.56
		c4.888,0,9.024,0.966,12.408,2.895c3.385,1.93,5.912,4.764,7.583,8.5c1.212,2.763,1.818,7.23,1.818,13.404v41.37h-17.611v-36.983
		c0-6.418-0.605-10.561-1.817-12.43c-1.629-2.438-4.136-3.656-7.521-3.656c-2.466,0-4.784,0.732-6.956,2.194
		c-2.173,1.462-3.74,3.604-4.7,6.428c-0.962,2.823-1.441,7.28-1.441,13.374v31.073h-17.611v-35.46
		c0-6.296-0.313-10.358-0.939-12.186c-0.627-1.828-1.599-3.189-2.914-4.082c-1.316-0.894-3.103-1.342-5.358-1.342
		c-2.717,0-5.161,0.712-7.333,2.133c-2.173,1.423-3.729,3.473-4.669,6.154c-0.939,2.681-1.41,7.129-1.41,13.343v31.439h-17.61
		V277.641z"/>
	<path fill="#FFA600" d="M1255.547,277.641h16.42v9.505c2.131-3.249,5.014-5.89,8.648-7.921c3.636-2.03,7.667-3.047,12.096-3.047
		c7.729,0,14.289,2.946,19.679,8.836s8.085,14.095,8.085,24.614c0,10.806-2.717,19.203-8.147,25.194
		c-5.432,5.991-12.013,8.986-19.741,8.986c-3.677,0-7.01-0.711-9.996-2.132c-2.987-1.422-6.132-3.858-9.432-7.312v32.597h-17.611
		V277.641z M1272.97,308.897c0,7.271,1.482,12.643,4.449,16.115s6.581,5.209,10.843,5.209c4.094,0,7.499-1.594,10.215-4.782
		s4.074-8.418,4.074-15.689c0-6.783-1.4-11.82-4.199-15.11c-2.8-3.29-6.268-4.935-10.403-4.935c-4.304,0-7.876,1.614-10.717,4.844
		C1274.39,297.777,1272.97,302.561,1272.97,308.897z"/>
	<path fill="#FFA600" d="M1347.61,297.381l-15.98-2.803c1.796-6.254,4.889-10.885,9.275-13.891s10.904-4.51,19.553-4.51
		c7.854,0,13.704,0.905,17.548,2.712c3.844,1.808,6.55,4.103,8.116,6.885s2.351,7.891,2.351,15.323l-0.188,19.985
		c0,5.687,0.282,9.881,0.846,12.581c0.564,2.702,1.619,5.597,3.165,8.683h-17.422c-0.461-1.137-1.024-2.822-1.692-5.057
		c-0.293-1.016-0.501-1.686-0.627-2.011c-3.008,2.844-6.226,4.976-9.651,6.397c-3.426,1.421-7.082,2.132-10.967,2.132
		c-6.854,0-12.253-1.807-16.201-5.422s-5.922-8.185-5.922-13.709c0-3.656,0.897-6.916,2.694-9.779
		c1.796-2.863,4.313-5.057,7.552-6.58c3.237-1.523,7.906-2.854,14.008-3.991c8.23-1.502,13.933-2.903,17.108-4.204v-1.705
		c0-3.291-0.836-5.637-2.507-7.038s-4.825-2.103-9.463-2.103c-3.134,0-5.578,0.601-7.333,1.798
		C1350.118,292.273,1348.697,294.376,1347.61,297.381z M1371.175,311.273c-2.256,0.73-5.828,1.604-10.717,2.62
		c-4.888,1.016-8.084,2.01-9.588,2.985c-2.299,1.584-3.447,3.595-3.447,6.031c0,2.397,0.919,4.469,2.758,6.215
		c1.838,1.747,4.177,2.62,7.019,2.62c3.175,0,6.205-1.015,9.088-3.047c2.131-1.543,3.53-3.432,4.198-5.666
		c0.46-1.462,0.689-4.244,0.689-8.347V311.273z"/>
	<path fill="#FFA600" d="M1466.372,342.347h-17.61v-33.023c0-6.985-0.376-11.505-1.128-13.556c-0.753-2.051-1.975-3.646-3.667-4.783
		c-1.691-1.137-3.729-1.707-6.11-1.707c-3.05,0-5.787,0.813-8.21,2.438c-2.424,1.625-4.084,3.777-4.982,6.459
		c-0.898,2.681-1.347,7.637-1.347,14.866v29.307h-17.611v-64.706h16.357v9.505c5.807-7.312,13.119-10.968,21.935-10.968
		c3.886,0,7.437,0.682,10.654,2.042c3.217,1.361,5.65,3.098,7.302,5.209c1.649,2.112,2.798,4.509,3.446,7.19
		c0.647,2.68,0.972,6.519,0.972,11.515V342.347z"/>
	<path fill="#FFA600" d="M1475.897,277.641h18.739l15.918,45.94l15.543-45.94h18.237l-23.502,62.269l-4.199,11.272
		c-1.546,3.777-3.019,6.661-4.418,8.651c-1.4,1.99-3.008,3.604-4.826,4.844c-1.817,1.238-4.053,2.203-6.705,2.895
		c-2.654,0.69-5.651,1.035-8.993,1.035c-3.385,0-6.706-0.345-9.965-1.035l-1.567-13.404c2.758,0.527,5.243,0.792,7.458,0.792
		c4.095,0,7.123-1.168,9.088-3.504c1.963-2.336,3.467-5.311,4.512-8.926L1475.897,277.641z"/>
</g>
<g enable-background="new    ">
	<path fill="#3E3E3E" d="M271.319,437.138v-58.16h21.82c4.443,0,8.007,0.589,10.692,1.766c2.684,1.177,4.787,2.988,6.308,5.435
		c1.521,2.447,2.281,5.006,2.281,7.677c0,2.486-0.674,4.827-2.023,7.022c-1.349,2.195-3.386,3.967-6.11,5.315
		c3.518,1.032,6.222,2.791,8.113,5.277c1.891,2.486,2.836,5.422,2.836,8.807c0,2.725-0.575,5.257-1.726,7.598
		s-2.573,4.146-4.265,5.415c-1.693,1.27-3.815,2.229-6.367,2.877c-2.553,0.648-5.68,0.972-9.383,0.972H271.319z M279.016,403.416
		h12.576c3.412,0,5.858-0.225,7.34-0.675c1.957-0.581,3.432-1.547,4.423-2.896c0.992-1.349,1.488-3.041,1.488-5.078
		c0-1.93-0.463-3.63-1.389-5.098c-0.926-1.468-2.249-2.473-3.967-3.015c-1.72-0.542-4.668-0.813-8.847-0.813h-11.624V403.416z
		 M279.016,430.274h14.48c2.486,0,4.231-0.093,5.237-0.277c1.772-0.318,3.253-0.847,4.443-1.588c1.19-0.739,2.168-1.817,2.936-3.232
		c0.767-1.415,1.15-3.049,1.15-4.9c0-2.168-0.556-4.053-1.666-5.653c-1.111-1.6-2.652-2.724-4.622-3.372
		c-1.971-0.647-4.807-0.972-8.51-0.972h-13.449V430.274z"/>
	<path fill="#3E3E3E" d="M353.76,423.569l7.379,0.913c-1.164,4.311-3.319,7.656-6.467,10.037c-3.147,2.38-7.167,3.57-12.061,3.57
		c-6.163,0-11.049-1.897-14.659-5.693c-3.61-3.795-5.415-9.117-5.415-15.968c0-7.088,1.825-12.59,5.475-16.504
		s8.384-5.872,14.203-5.872c5.633,0,10.235,1.918,13.806,5.753c3.57,3.835,5.356,9.23,5.356,16.187c0,0.423-0.014,1.058-0.04,1.904
		h-31.421c0.264,4.629,1.573,8.173,3.928,10.632c2.354,2.46,5.29,3.689,8.808,3.689c2.618,0,4.853-0.687,6.705-2.063
		C351.207,428.78,352.675,426.585,353.76,423.569z M330.313,412.024h23.526c-0.317-3.544-1.217-6.201-2.698-7.974
		c-2.275-2.751-5.224-4.126-8.847-4.126c-3.28,0-6.037,1.098-8.271,3.293C331.787,405.413,330.551,408.349,330.313,412.024z"/>
	<path fill="#3E3E3E" d="M367.248,424.562l7.062-1.111c0.397,2.831,1.501,4.999,3.313,6.507c1.811,1.508,4.344,2.261,7.597,2.261
		c3.279,0,5.713-0.667,7.3-2.003c1.587-1.335,2.38-2.902,2.38-4.701c0-1.613-0.701-2.883-2.103-3.809
		c-0.979-0.635-3.412-1.441-7.3-2.42c-5.237-1.322-8.867-2.466-10.89-3.432c-2.023-0.966-3.558-2.302-4.602-4.007
		c-1.045-1.706-1.567-3.591-1.567-5.654c0-1.877,0.43-3.616,1.29-5.217c0.859-1.6,2.029-2.929,3.511-3.986
		c1.11-0.82,2.625-1.515,4.542-2.083c1.917-0.568,3.973-0.854,6.169-0.854c3.306,0,6.209,0.477,8.708,1.429
		c2.5,0.952,4.344,2.241,5.535,3.868c1.19,1.626,2.01,3.802,2.459,6.526l-6.982,0.951c-0.317-2.168-1.236-3.86-2.757-5.078
		c-1.521-1.216-3.669-1.824-6.447-1.824c-3.28,0-5.621,0.542-7.022,1.626c-1.402,1.085-2.103,2.354-2.103,3.809
		c0,0.927,0.291,1.76,0.873,2.5c0.582,0.768,1.494,1.402,2.738,1.904c0.714,0.265,2.816,0.872,6.308,1.825
		c5.052,1.349,8.576,2.453,10.573,3.313s3.564,2.109,4.702,3.749c1.137,1.64,1.706,3.677,1.706,6.109
		c0,2.38-0.694,4.622-2.083,6.725c-1.389,2.103-3.392,3.729-6.011,4.88c-2.618,1.15-5.581,1.726-8.887,1.726
		c-5.475,0-9.647-1.137-12.517-3.412C369.873,432.403,368.042,429.031,367.248,424.562z"/>
	<path fill="#3E3E3E" d="M426.321,430.75l1.031,6.309c-2.01,0.423-3.809,0.635-5.396,0.635c-2.592,0-4.602-0.41-6.03-1.23
		c-1.428-0.819-2.434-1.897-3.015-3.233c-0.583-1.335-0.873-4.146-0.873-8.43v-24.24h-5.237v-5.555h5.237v-10.434l7.102-4.285
		v14.719h7.181v5.555h-7.181v24.637c0,2.037,0.125,3.346,0.377,3.928c0.251,0.582,0.661,1.045,1.229,1.389s1.382,0.516,2.44,0.516
		C423.98,431.028,425.024,430.936,426.321,430.75z"/>
	<path fill="#3E3E3E" d="M498.288,416.746l7.697,1.943c-1.614,6.322-4.517,11.143-8.708,14.461
		c-4.192,3.319-9.317,4.979-15.373,4.979c-6.269,0-11.366-1.276-15.294-3.829c-3.928-2.552-6.917-6.248-8.966-11.088
		c-2.05-4.841-3.074-10.038-3.074-15.592c0-6.057,1.156-11.34,3.471-15.85c2.314-4.509,5.607-7.935,9.878-10.275
		c4.271-2.34,8.972-3.511,14.104-3.511c5.818,0,10.712,1.481,14.679,4.443c3.967,2.963,6.731,7.128,8.292,12.497l-7.577,1.785
		c-1.349-4.231-3.307-7.313-5.872-9.243s-5.792-2.896-9.68-2.896c-4.47,0-8.207,1.071-11.208,3.213
		c-3.002,2.143-5.111,5.02-6.328,8.629c-1.217,3.61-1.825,7.334-1.825,11.168c0,4.946,0.72,9.264,2.162,12.953
		c1.441,3.69,3.683,6.447,6.725,8.272c3.041,1.825,6.334,2.737,9.878,2.737c4.311,0,7.96-1.243,10.95-3.729
		C495.206,425.329,497.229,421.64,498.288,416.746z"/>
	<path fill="#3E3E3E" d="M514.553,437.138v-58.16h7.141v20.867c3.333-3.86,7.538-5.792,12.616-5.792
		c3.121,0,5.832,0.615,8.133,1.845c2.301,1.23,3.947,2.93,4.939,5.099s1.488,5.315,1.488,9.441v26.7h-7.141v-26.7
		c0-3.57-0.773-6.169-2.321-7.795c-1.547-1.627-3.736-2.44-6.566-2.44c-2.116,0-4.106,0.55-5.971,1.646
		c-1.865,1.098-3.194,2.586-3.987,4.463c-0.793,1.879-1.19,4.471-1.19,7.776v23.05H514.553z"/>
	<path fill="#3E3E3E" d="M557.083,416.071c0-7.802,2.168-13.581,6.506-17.337c3.623-3.12,8.04-4.682,13.251-4.682
		c5.792,0,10.526,1.898,14.203,5.693c3.676,3.796,5.515,9.039,5.515,15.73c0,5.422-0.813,9.687-2.44,12.794
		c-1.626,3.108-3.994,5.521-7.102,7.24c-3.108,1.72-6.5,2.579-10.176,2.579c-5.898,0-10.666-1.891-14.302-5.673
		C558.901,428.635,557.083,423.187,557.083,416.071z M564.422,416.071c0,5.396,1.177,9.437,3.531,12.12
		c2.354,2.685,5.316,4.026,8.887,4.026c3.543,0,6.493-1.349,8.847-4.046c2.354-2.698,3.531-6.811,3.531-12.339
		c0-5.21-1.184-9.157-3.551-11.842c-2.368-2.685-5.31-4.027-8.827-4.027c-3.571,0-6.533,1.336-8.887,4.008
		C565.599,406.643,564.422,410.676,564.422,416.071z"/>
	<path fill="#3E3E3E" d="M604.968,387.189v-8.212h7.141v8.212H604.968z M604.968,437.138v-42.133h7.141v42.133H604.968z"/>
	<path fill="#3E3E3E" d="M650.473,421.705l7.022,0.912c-0.767,4.841-2.731,8.629-5.891,11.366
		c-3.161,2.737-7.042,4.106-11.644,4.106c-5.766,0-10.401-1.885-13.905-5.653c-3.505-3.769-5.257-9.171-5.257-16.206
		c0-4.549,0.754-8.53,2.261-11.942c1.508-3.411,3.802-5.971,6.883-7.676c3.081-1.706,6.433-2.56,10.057-2.56
		c4.575,0,8.318,1.157,11.228,3.472c2.909,2.314,4.773,5.601,5.594,9.858l-6.943,1.071c-0.661-2.83-1.832-4.959-3.511-6.387
		c-1.68-1.429-3.709-2.143-6.09-2.143c-3.597,0-6.52,1.289-8.768,3.868c-2.249,2.578-3.373,6.658-3.373,12.239
		c0,5.66,1.084,9.772,3.253,12.338c2.168,2.565,4.999,3.848,8.49,3.848c2.803,0,5.144-0.858,7.022-2.578
		C648.78,427.921,649.97,425.275,650.473,421.705z"/>
	<path fill="#3E3E3E" d="M692.447,423.569l7.379,0.913c-1.164,4.311-3.319,7.656-6.467,10.037c-3.147,2.38-7.167,3.57-12.061,3.57
		c-6.163,0-11.049-1.897-14.659-5.693c-3.61-3.795-5.415-9.117-5.415-15.968c0-7.088,1.825-12.59,5.475-16.504
		s8.384-5.872,14.203-5.872c5.633,0,10.235,1.918,13.806,5.753c3.57,3.835,5.356,9.23,5.356,16.187c0,0.423-0.014,1.058-0.04,1.904
		h-31.421c0.264,4.629,1.573,8.173,3.928,10.632c2.354,2.46,5.29,3.689,8.808,3.689c2.618,0,4.853-0.687,6.705-2.063
		C689.894,428.78,691.362,426.585,692.447,423.569z M669,412.024h23.526c-0.317-3.544-1.217-6.201-2.698-7.974
		c-2.275-2.751-5.224-4.126-8.847-4.126c-3.28,0-6.037,1.098-8.271,3.293C670.474,405.413,669.238,408.349,669,412.024z"/>
	<path fill="#3E3E3E" d="M733.071,437.138V400.56h-6.308v-5.555h6.308v-4.482c0-2.83,0.251-4.933,0.754-6.309
		c0.688-1.851,1.897-3.353,3.63-4.503c1.732-1.15,4.159-1.726,7.28-1.726c2.01,0,4.231,0.238,6.665,0.714l-1.071,6.229
		c-1.481-0.265-2.883-0.397-4.205-0.397c-2.169,0-3.703,0.463-4.602,1.389c-0.899,0.926-1.349,2.658-1.349,5.197v3.888h8.212v5.555
		h-8.212v36.578H733.071z"/>
	<path fill="#3E3E3E" d="M751.28,416.071c0-7.802,2.169-13.581,6.507-17.337c3.623-3.12,8.04-4.682,13.251-4.682
		c5.792,0,10.526,1.898,14.203,5.693c3.676,3.796,5.514,9.039,5.514,15.73c0,5.422-0.813,9.687-2.439,12.794
		c-1.627,3.108-3.994,5.521-7.102,7.24c-3.108,1.72-6.5,2.579-10.176,2.579c-5.898,0-10.666-1.891-14.303-5.673
		S751.28,423.187,751.28,416.071z M758.62,416.071c0,5.396,1.177,9.437,3.531,12.12c2.354,2.685,5.316,4.026,8.887,4.026
		c3.544,0,6.492-1.349,8.847-4.046c2.354-2.698,3.531-6.811,3.531-12.339c0-5.21-1.185-9.157-3.551-11.842
		c-2.367-2.685-5.311-4.027-8.827-4.027c-3.57,0-6.533,1.336-8.887,4.008C759.797,406.643,758.62,410.676,758.62,416.071z"/>
	<path fill="#3E3E3E" d="M799.047,437.138v-42.133h6.427v6.388c1.64-2.988,3.154-4.959,4.543-5.911s2.916-1.429,4.582-1.429
		c2.406,0,4.854,0.768,7.34,2.302l-2.46,6.625c-1.745-1.031-3.491-1.547-5.237-1.547c-1.561,0-2.962,0.47-4.205,1.408
		s-2.129,2.241-2.658,3.907c-0.793,2.539-1.189,5.316-1.189,8.331v22.059H799.047z"/>
	<path fill="#3E3E3E" d="M893.746,430.909c3.57,2.46,6.863,4.259,9.879,5.396l-2.262,5.355c-4.179-1.507-8.345-3.888-12.497-7.141
		c-4.312,2.407-9.072,3.61-14.282,3.61c-5.264,0-10.037-1.27-14.321-3.809c-4.285-2.539-7.585-6.11-9.898-10.712
		c-2.315-4.603-3.472-9.786-3.472-15.552c0-5.739,1.163-10.963,3.491-15.671c2.327-4.707,5.64-8.292,9.938-10.751
		c4.297-2.46,9.104-3.689,14.421-3.689c5.368,0,10.209,1.275,14.52,3.828c4.312,2.553,7.598,6.123,9.859,10.712
		c2.261,4.589,3.392,9.766,3.392,15.531c0,4.788-0.728,9.092-2.182,12.914C898.877,424.754,896.682,428.079,893.746,430.909z
		 M876.806,421.07c4.443,1.243,8.106,3.095,10.989,5.554c4.523-4.126,6.784-10.327,6.784-18.606c0-4.707-0.8-8.82-2.4-12.338
		s-3.94-6.249-7.021-8.192c-3.082-1.944-6.54-2.916-10.375-2.916c-5.739,0-10.5,1.964-14.282,5.892s-5.673,9.793-5.673,17.595
		c0,7.564,1.871,13.369,5.613,17.416c3.743,4.047,8.523,6.07,14.342,6.07c2.751,0,5.343-0.516,7.776-1.547
		c-2.407-1.561-4.946-2.672-7.617-3.333L876.806,421.07z"/>
	<path fill="#3E3E3E" d="M939.568,437.138v-6.189c-3.279,4.762-7.735,7.142-13.369,7.142c-2.486,0-4.808-0.476-6.963-1.429
		c-2.156-0.951-3.756-2.148-4.801-3.59s-1.778-3.207-2.201-5.297c-0.292-1.401-0.437-3.623-0.437-6.664v-26.105h7.141v23.367
		c0,3.729,0.146,6.242,0.437,7.538c0.449,1.878,1.401,3.353,2.856,4.424c1.454,1.071,3.254,1.606,5.396,1.606
		c2.143,0,4.152-0.549,6.03-1.646c1.878-1.097,3.207-2.592,3.987-4.482s1.171-4.636,1.171-8.232v-22.574h7.141v42.133H939.568z"/>
	<path fill="#3E3E3E" d="M984.638,431.94c-2.646,2.248-5.191,3.835-7.638,4.761s-5.071,1.389-7.875,1.389
		c-4.629,0-8.187-1.131-10.672-3.392c-2.486-2.262-3.729-5.151-3.729-8.669c0-2.063,0.47-3.947,1.408-5.653s2.169-3.074,3.69-4.106
		c1.521-1.031,3.233-1.812,5.138-2.341c1.401-0.37,3.517-0.727,6.348-1.07c5.765-0.688,10.01-1.508,12.734-2.46
		c0.026-0.979,0.04-1.601,0.04-1.865c0-2.909-0.675-4.959-2.023-6.149c-1.825-1.612-4.536-2.42-8.133-2.42
		c-3.359,0-5.839,0.589-7.438,1.766c-1.601,1.178-2.784,3.26-3.551,6.249l-6.982-0.952c0.635-2.989,1.679-5.402,3.134-7.24
		c1.454-1.839,3.557-3.254,6.308-4.245c2.751-0.992,5.938-1.488,9.562-1.488c3.597,0,6.52,0.424,8.768,1.27
		c2.248,0.847,3.901,1.911,4.959,3.194s1.799,2.902,2.222,4.859c0.238,1.217,0.357,3.412,0.357,6.586v9.521
		c0,6.639,0.151,10.837,0.456,12.596c0.304,1.76,0.905,3.445,1.806,5.059h-7.459C985.324,435.657,984.849,433.924,984.638,431.94z
		 M984.042,415.992c-2.592,1.058-6.48,1.957-11.664,2.697c-2.936,0.424-5.012,0.899-6.229,1.429s-2.155,1.303-2.816,2.32
		c-0.661,1.019-0.992,2.149-0.992,3.393c0,1.904,0.721,3.491,2.162,4.761s3.551,1.904,6.328,1.904c2.75,0,5.197-0.602,7.34-1.806
		c2.142-1.203,3.715-2.85,4.721-4.938c0.767-1.613,1.15-3.994,1.15-7.142V415.992z"/>
	<path fill="#3E3E3E" d="M1002.173,437.138v-58.16h7.141v58.16H1002.173z"/>
	<path fill="#3E3E3E" d="M1020.422,387.189v-8.212h7.142v8.212H1020.422z M1020.422,437.138v-42.133h7.142v42.133H1020.422z"/>
	<path fill="#3E3E3E" d="M1054.024,430.75l1.031,6.309c-2.01,0.423-3.809,0.635-5.396,0.635c-2.592,0-4.602-0.41-6.03-1.23
		c-1.428-0.819-2.434-1.897-3.015-3.233c-0.582-1.335-0.873-4.146-0.873-8.43v-24.24h-5.237v-5.555h5.237v-10.434l7.102-4.285
		v14.719h7.181v5.555h-7.181v24.637c0,2.037,0.125,3.346,0.377,3.928c0.251,0.582,0.66,1.045,1.229,1.389
		c0.568,0.344,1.382,0.516,2.44,0.516C1051.684,431.028,1052.729,430.936,1054.024,430.75z"/>
	<path fill="#3E3E3E" d="M1060.689,453.364l-0.793-6.705c1.561,0.423,2.922,0.635,4.086,0.635c1.587,0,2.856-0.265,3.809-0.793
		c0.952-0.53,1.732-1.27,2.341-2.223c0.449-0.714,1.177-2.486,2.182-5.315c0.133-0.397,0.344-0.979,0.635-1.746l-15.987-42.212
		h7.696l8.768,24.399c1.137,3.094,2.155,6.348,3.055,9.759c0.819-3.279,1.799-6.479,2.936-9.601l9.006-24.558h7.142l-16.028,42.847
		c-1.72,4.628-3.055,7.815-4.007,9.562c-1.27,2.354-2.725,4.079-4.364,5.177s-3.597,1.646-5.871,1.646
		C1063.916,454.236,1062.382,453.945,1060.689,453.364z"/>
	<path fill="#3E3E3E" d="M1114.248,437.138l22.336-58.16h8.292l23.804,58.16h-8.768l-6.784-17.615h-24.319l-6.388,17.615H1114.248z
		 M1131.029,413.255h19.718l-6.069-16.107c-1.853-4.893-3.228-8.913-4.127-12.061c-0.74,3.729-1.785,7.433-3.134,11.108
		L1131.029,413.255z"/>
	<path fill="#3E3E3E" d="M1171.06,424.562l7.063-1.111c0.396,2.831,1.5,4.999,3.313,6.507c1.812,1.508,4.344,2.261,7.597,2.261
		c3.279,0,5.713-0.667,7.301-2.003c1.586-1.335,2.38-2.902,2.38-4.701c0-1.613-0.701-2.883-2.103-3.809
		c-0.979-0.635-3.412-1.441-7.3-2.42c-5.237-1.322-8.867-2.466-10.891-3.432s-3.558-2.302-4.602-4.007
		c-1.045-1.706-1.567-3.591-1.567-5.654c0-1.877,0.43-3.616,1.289-5.217c0.859-1.6,2.03-2.929,3.512-3.986
		c1.11-0.82,2.624-1.515,4.542-2.083s3.974-0.854,6.169-0.854c3.307,0,6.209,0.477,8.709,1.429c2.499,0.952,4.344,2.241,5.534,3.868
		c1.19,1.626,2.01,3.802,2.46,6.526l-6.982,0.951c-0.317-2.168-1.237-3.86-2.758-5.078c-1.521-1.216-3.67-1.824-6.446-1.824
		c-3.28,0-5.621,0.542-7.022,1.626c-1.402,1.085-2.103,2.354-2.103,3.809c0,0.927,0.291,1.76,0.873,2.5
		c0.581,0.768,1.493,1.402,2.737,1.904c0.714,0.265,2.816,0.872,6.308,1.825c5.052,1.349,8.575,2.453,10.573,3.313
		c1.996,0.859,3.563,2.109,4.701,3.749c1.137,1.64,1.706,3.677,1.706,6.109c0,2.38-0.694,4.622-2.083,6.725s-3.393,3.729-6.011,4.88
		s-5.581,1.726-8.887,1.726c-5.475,0-9.647-1.137-12.517-3.412C1173.685,432.403,1171.854,429.031,1171.06,424.562z"/>
	<path fill="#3E3E3E" d="M1214.581,387.189v-8.212h7.142v8.212H1214.581z M1214.581,437.138v-42.133h7.142v42.133H1214.581z"/>
	<path fill="#3E3E3E" d="M1260.086,431.94c-2.646,2.248-5.191,3.835-7.638,4.761s-5.071,1.389-7.875,1.389
		c-4.629,0-8.187-1.131-10.672-3.392c-2.486-2.262-3.729-5.151-3.729-8.669c0-2.063,0.47-3.947,1.408-5.653s2.169-3.074,3.69-4.106
		c1.521-1.031,3.233-1.812,5.138-2.341c1.401-0.37,3.517-0.727,6.348-1.07c5.765-0.688,10.01-1.508,12.734-2.46
		c0.026-0.979,0.04-1.601,0.04-1.865c0-2.909-0.675-4.959-2.023-6.149c-1.825-1.612-4.536-2.42-8.133-2.42
		c-3.359,0-5.839,0.589-7.438,1.766c-1.601,1.178-2.784,3.26-3.551,6.249l-6.982-0.952c0.635-2.989,1.679-5.402,3.134-7.24
		c1.454-1.839,3.557-3.254,6.308-4.245c2.751-0.992,5.938-1.488,9.562-1.488c3.597,0,6.52,0.424,8.768,1.27
		c2.248,0.847,3.901,1.911,4.959,3.194s1.799,2.902,2.222,4.859c0.238,1.217,0.357,3.412,0.357,6.586v9.521
		c0,6.639,0.151,10.837,0.456,12.596c0.304,1.76,0.905,3.445,1.806,5.059h-7.459C1260.772,435.657,1260.297,433.924,1260.086,431.94
		z M1259.49,415.992c-2.592,1.058-6.48,1.957-11.664,2.697c-2.936,0.424-5.012,0.899-6.229,1.429s-2.155,1.303-2.816,2.32
		c-0.661,1.019-0.992,2.149-0.992,3.393c0,1.904,0.721,3.491,2.162,4.761s3.551,1.904,6.328,1.904c2.75,0,5.197-0.602,7.34-1.806
		c2.142-1.203,3.715-2.85,4.721-4.938c0.767-1.613,1.15-3.994,1.15-7.142V415.992z"/>
</g>
<path fill="#F08547" d="M589.125,44.369v19.005c30,10.046,51.981,38.514,51.981,72.087c0,41.963-34.021,75.977-75.98,75.977
	s-75.782-34.014-75.782-75.977c0-34.893,22.78-64.273,55.78-73.186V43.514c-42,9.321-73.991,46.935-73.991,91.947
	c0,52.02,42.07,94.188,94.087,94.188c52.019,0,94.146-42.168,94.146-94.188C659.365,91.735,630.125,54.979,589.125,44.369z"/>
<path fill="#41C4EB" d="M852.956,89.308l-13.596,13.28c13.916,28.624,8.772,64.104-15.244,87.563
	c-30.019,29.321-78.119,28.754-107.439-1.262c-29.319-30.02-28.755-78.121,1.266-107.441c24.962-24.382,62.422-28.077,91.193-11.375
	l13.421-13.109c-36.163-23.683-85.14-19.996-117.34,11.457c-37.213,36.348-37.914,95.979-1.564,133.191
	c36.348,37.212,95.977,37.913,133.188,1.564C868.121,172.623,873.593,125.622,852.956,89.308z"/>
<path fill="#87C773" d="M1066.795,151.771l-18.941,1.549c-7.549,30.92-34.146,54.957-67.608,57.694
	c-41.821,3.423-78.495-27.708-81.919-69.528c-3.421-41.822,27.708-78.497,69.527-81.919c34.778-2.845,65.979,18.212,77.477,49.432
	l18.698-1.53c-12.731-41.31-52.798-69.723-97.659-66.052c-51.846,4.242-90.437,49.708-86.191,101.554
	c4.242,51.843,49.708,90.433,101.555,86.19C1025.311,225.598,1059.514,192.898,1066.795,151.771z"/>
<rect x="535.879" y="100.939" fill="none" width="58.489" height="72.132"/>
<text transform="matrix(1 0 0 1 535.8789 109.459)" display="none" enable-background="new    " font-family="'MyriadPro-Regular'" font-size="12">t</text>
<g enable-background="new    ">
	<path fill="#B5B5B5" d="M766.644,167.077V98.391h9.09v68.687H766.644z"/>
</g>
<g enable-background="new    ">
	<path fill="#B5B5B5" d="M977.746,104.83c-7.527,0-13.47,2.507-17.827,7.52c-4.357,5.014-6.536,11.877-6.536,20.592
		c0,8.966,2.101,15.892,6.302,20.779c4.2,4.89,10.19,7.333,17.968,7.333c4.779,0,10.23-0.858,16.353-2.577v6.981
		c-4.749,1.78-10.604,2.671-17.57,2.671c-10.089,0-17.874-3.062-23.356-9.184c-5.481-6.122-8.223-14.821-8.223-26.098
		c0-7.059,1.319-13.243,3.959-18.554c2.64-5.31,6.449-9.401,11.433-12.275c4.981-2.873,10.847-4.311,17.593-4.311
		c7.185,0,13.463,1.313,18.836,3.936l-3.374,6.841C988.117,106.048,982.932,104.83,977.746,104.83z"/>
</g>
<rect x="536.125" y="98.375" fill="none" width="104" height="128"/>
<g enable-background="new    ">
	<path fill="#B5B5B5" d="M561.004,167.077v-60.581h-22.63v-8.105h54.443v8.105h-22.724v60.581H561.004z"/>
</g>
</svg>
